<?xml version="1.0" encoding="UTF-8" standalone="no"?>
<svg
   width="16"
   height="16"
   viewBox="0 0 16 16"
   version="1.1"
   id="svg11"
   sodipodi:docname="favicon.svg"
   inkscape:version="1.1 (c68e22c387, 2021-05-23)"
   xmlns:inkscape="http://www.inkscape.org/namespaces/inkscape"
   xmlns:sodipodi="http://sodipodi.sourceforge.net/DTD/sodipodi-0.dtd"
   xmlns="http://www.w3.org/2000/svg"
   xmlns:svg="http://www.w3.org/2000/svg"
   xmlns:rdf="http://www.w3.org/1999/02/22-rdf-syntax-ns#"
   xmlns:x="adobe:ns:meta/">
  <sodipodi:namedview
     id="namedview13"
     pagecolor="#ffffff"
     bordercolor="#666666"
     borderopacity="1.0"
     inkscape:pageshadow="2"
     inkscape:pageopacity="0.0"
     inkscape:pagecheckerboard="0"
     showgrid="false"
     inkscape:zoom="50.75"
     inkscape:cx="8.9458128"
     inkscape:cy="7.9704433"
     inkscape:window-width="1920"
     inkscape:window-height="1001"
     inkscape:window-x="-9"
     inkscape:window-y="76"
     inkscape:window-maximized="1"
     inkscape:current-layer="svg11" />
  <metadata
     id="metadata2">
<?xpacket begin="﻿" id="W5M0MpCehiHzreSzNTczkc9d"?>    <x:xmpmeta
       x:xmptk="Adobe XMP Core 5.6-c138 79.159824, 2016/09/14-01:09:01        ">
      <rdf:RDF>
        <rdf:Description
           rdf:about="" />
      </rdf:RDF>
    </x:xmpmeta>
<?xpacket end="w"?>  </metadata>
  <defs
     id="defs6">
    <style
       id="style4">
      .cls-1 {
        fill: #8eaeba;
      }

      .cls-2 {
        fill: #fff;
        fill-rule: evenodd;
      }
    </style>
  </defs>
  <rect
     class="cls-1"
     width="16"
     height="16"
     id="rect8"
     x="0"
     y="0" />
  <path
     id="_"
     data-name=""
     class="cls-2"
     d="M12.306,8.864L8,12.919,3.686,8.857A3.784,3.784,0,0,1,2.3,6.281a3.094,3.094,0,0,1,.16-1.037,2.013,2.013,0,0,1,.408-0.715A1.96,1.96,0,0,1,3.471,4.1a2.728,2.728,0,0,1,.7-0.225A4.347,4.347,0,0,1,4.9,3.815,2.178,2.178,0,0,1,5.728,4a3.822,3.822,0,0,1,.82.464q0.375,0.279.642,0.522a5.705,5.705,0,0,1,.445.446,0.494,0.494,0,0,0,.728,0,5.705,5.705,0,0,1,.445-0.446q0.267-.243.642-0.522A3.82,3.82,0,0,1,10.272,4,2.178,2.178,0,0,1,11.1,3.815a4.349,4.349,0,0,1,.728.058,2.73,2.73,0,0,1,.7.225,1.962,1.962,0,0,1,.605.432,2.016,2.016,0,0,1,.408.715,3.1,3.1,0,0,1,.16,1.037,3.8,3.8,0,0,1-1.4,2.583h0Zm1.4-5.078a3.622,3.622,0,0,0-2.606-.9,3.022,3.022,0,0,0-.939.156,3.844,3.844,0,0,0-.891.421q-0.412.265-.709,0.5A6.794,6.794,0,0,0,8,4.453,6.816,6.816,0,0,0,7.436,3.96q-0.3-.232-0.709-0.5a3.845,3.845,0,0,0-.891-0.421A3.023,3.023,0,0,0,4.9,2.886a3.621,3.621,0,0,0-2.606.9,3.285,3.285,0,0,0-.943,2.5,3.11,3.11,0,0,0,.174,1,4.337,4.337,0,0,0,.4.878,6.4,6.4,0,0,0,.5.707q0.282,0.345.412,0.475a2.4,2.4,0,0,0,.2.189L7.673,13.9a0.474,0.474,0,0,0,.653,0l4.625-4.353a4.7,4.7,0,0,0,1.7-3.265A3.285,3.285,0,0,0,13.71,3.786Z"
     style="fill:#fff5e6;fill-opacity:1" />
  <path
     style="fill:#020352;stroke:none;stroke-width:0.0197044;fill-opacity:1"
     d="M 0,8 V 0 h 8 8 v 8 8 H 8 0 Z m 8.2068966,5.992077 c 0.050243,-0.02334 0.9039069,-0.813647 2.3546794,-2.17992 1.251724,-1.178818 2.3867,-2.2432746 2.522168,-2.3654593 0.809609,-0.7302234 1.319778,-1.6394603 1.519323,-2.7077814 0.03898,-0.2086863 0.04598,-0.3095057 0.04584,-0.6600986 -1.4e-4,-0.3557416 -0.0064,-0.4428187 -0.04487,-0.6206896 C 14.479258,4.8804936 14.229707,4.365334 13.871356,3.94561 13.477837,3.4846956 12.730181,3.0841773 11.980296,2.9325712 11.779068,2.8918887 11.698535,2.886759 11.261084,2.886759 c -0.434077,0 -0.518828,0.00531 -0.713242,0.044701 C 10.26198,2.9893762 9.9187773,3.1081773 9.6386148,3.2461927 9.1976495,3.4634234 8.4946613,3.9651509 8.1049367,4.340789 L 8.0029771,4.4390634 7.8268524,4.277548 C 7.4964995,3.9745976 6.9242869,3.55651 6.5356918,3.3341606 6.1543716,3.1159738 5.6410749,2.9451549 5.2192534,2.8960662 4.907987,2.8598432 4.286425,2.879962 4.0098522,2.9352124 3.2725525,3.0825013 2.5182538,3.4893576 2.1340032,3.9470148 1.70772,4.4547342 1.4600222,5.0068922 1.3687593,5.6528652 c -0.044493,0.314932 -0.030739,0.8979886 0.028002,1.187068 0.1094159,0.5384556 0.3212054,1.0323015 0.6622858,1.5443033 0.2842002,0.4266177 0.6552173,0.8739818 0.9440849,1.1383566 0.089735,0.082126 1.1864536,1.1132099 2.4371535,2.2912969 1.4585338,1.373854 2.3022642,2.155034 2.3528175,2.178389 0.1059212,0.04893 0.3082339,0.04884 0.4137932,-2.01e-4 z"
     id="path74" />
  <path
     style="fill:#020352;fill-opacity:1;stroke-width:0.0197044"
     d="M 5.9197046,10.945126 C 4.7859056,9.8772607 3.7549235,8.9096292 3.6286333,8.7948335 2.9823639,8.2073862 2.6083445,7.608692 2.4146858,6.8516636 2.317396,6.4713492 2.2941884,6.2436063 2.3232011,5.9538967 2.3735595,5.4510393 2.5201868,5.0188153 2.7493765,4.6976289 3.0595519,4.2629491 3.6408147,3.9559409 4.3349754,3.860156 4.6245395,3.8202 5.0997728,3.8247582 5.2906404,3.8693223 5.9497783,4.0232188 6.6280493,4.4554871 7.4271117,5.2309149 7.7740193,5.5675616 7.81873,5.5960591 8,5.5960591 c 0.1816619,0 0.2259872,-0.028225 0.57145,-0.3638849 0.7717512,-0.7498513 1.4204042,-1.1725191 2.064323,-1.3451305 0.171946,-0.046092 0.22753,-0.051441 0.536641,-0.051642 0.521423,-3.383e-4 0.875245,0.066476 1.2787,0.241464 0.488006,0.2116599 0.848497,0.5789297 1.036645,1.056139 0.132541,0.3361698 0.224126,0.877894 0.198212,1.1724138 C 13.62714,6.97404 13.303788,7.7474331 12.850876,8.3027949 12.723047,8.4595401 12.765186,8.419334 10.073424,10.952842 8.9433645,12.016464 8.0103072,12.8867 7.9999637,12.8867 c -0.010344,0 -0.9464601,-0.873708 -2.0802591,-1.941574 z"
     id="path1113" />
  <text
     xml:space="preserve"
     style="font-style:normal;font-variant:normal;font-weight:normal;font-stretch:normal;font-size:2.66667px;line-height:1.25;font-family:Rembank;-inkscape-font-specification:'Rembank, Normal';font-variant-ligatures:normal;font-variant-caps:normal;font-variant-numeric:normal;font-variant-east-asian:normal;fill:#fff5e6;fill-opacity:1;stroke:none"
     x="9.0049257"
     y="8.0788183"
     id="text2734"><tspan
       sodipodi:role="line"
       id="tspan2732"
       x="9.0049257"
       y="8.0788183">K</tspan></text>
  <text
     xml:space="preserve"
     style="font-style:normal;font-variant:normal;font-weight:normal;font-stretch:normal;font-size:3.46667px;line-height:1.25;font-family:Rembank;-inkscape-font-specification:'Rembank, Normal';font-variant-ligatures:normal;font-variant-caps:normal;font-variant-numeric:normal;font-variant-east-asian:normal;fill:#fff5e6;fill-opacity:1;stroke:none"
     x="3.9802959"
     y="8.4137936"
     id="text10398"><tspan
       sodipodi:role="line"
       id="tspan10396"
       x="3.9802959"
       y="8.4137936">D </tspan></text>
  <text
     xml:space="preserve"
     style="font-style:normal;font-variant:normal;font-weight:normal;font-stretch:normal;font-size:2px;line-height:1.25;font-family:'Playfair Display';-inkscape-font-specification:'Playfair Display, Normal';font-variant-ligatures:normal;font-variant-caps:normal;font-variant-numeric:normal;font-variant-east-asian:normal;fill:#fff5e6;fill-opacity:1;stroke:none"
     x="7.2512326"
     y="8.7881784"
     id="text17306"><tspan
       sodipodi:role="line"
       id="tspan17304"
       x="7.2512326"
       y="8.7881784">&amp;</tspan></text>
</svg>
